<?xml version="1.0" standalone="no"?>
<!DOCTYPE svg PUBLIC "-//W3C//DTD SVG 20010904//EN"
 "http://www.w3.org/TR/2001/REC-SVG-20010904/DTD/svg10.dtd">
<svg version="1.0" xmlns="http://www.w3.org/2000/svg"
 width="700.000000pt" height="700.000000pt" viewBox="0 0 700.000000 700.000000"
 preserveAspectRatio="xMidYMid meet">
<metadata>
Created by potrace 1.11, written by Peter Selinger 2001-2013
</metadata>
<g transform="translate(0.000000,700.000000) scale(0.100000,-0.100000)"
fill="#000000" stroke="none">
<path d="M5820 6050 c-42 -8 -89 -31 -112 -56 -9 -11 -37 -59 -62 -109 -74
-147 -174 -245 -326 -318 -153 -73 -52 -69 -1645 -71 -786 0 -1434 -4 -1440
-8 -5 -3 -34 -9 -64 -13 -30 -4 -61 -8 -70 -10 -316 -75 -584 -243 -806 -509
-167 -201 -351 -560 -347 -679 4 -99 97 -188 194 -186 99 2 160 50 203 160 52
136 174 357 228 414 7 7 34 39 62 72 152 180 384 312 612 349 15 3 140 7 277
9 l248 4 -6 -122 c-4 -67 -9 -147 -11 -177 -2 -30 -6 -102 -10 -160 -3 -58 -8
-132 -10 -165 -9 -129 -17 -232 -20 -280 -10 -156 -17 -253 -20 -275 -2 -14
-7 -61 -10 -105 -4 -44 -8 -96 -10 -115 -4 -38 -22 -215 -30 -295 -3 -27 -7
-61 -9 -75 -3 -14 -7 -45 -10 -70 -16 -135 -37 -291 -46 -335 -5 -27 -12 -68
-15 -90 -16 -119 -66 -362 -110 -536 -116 -462 -267 -772 -434 -892 -55 -40
-95 -54 -171 -63 -96 -10 -157 -54 -185 -134 -43 -121 43 -251 174 -263 53 -5
178 15 241 38 303 109 542 454 710 1021 22 76 42 147 44 159 2 11 11 47 20 80
17 67 52 231 61 285 3 19 10 51 15 70 5 19 16 85 25 145 10 61 19 119 21 130
2 11 7 40 10 65 3 25 7 58 10 73 8 52 43 322 49 382 3 33 8 76 10 95 4 33 8
69 20 203 2 28 7 75 10 102 2 28 7 84 10 125 3 41 7 95 10 120 5 50 12 149 20
285 4 50 8 113 10 140 2 28 6 100 10 160 3 61 8 137 10 170 2 33 7 112 11 175
3 63 10 118 16 121 5 4 445 7 976 7 532 0 976 3 987 5 11 3 40 8 65 12 147 22
341 106 470 203 168 125 315 322 365 486 41 135 -84 272 -225 246z"/>
<path d="M4365 4538 c-45 -16 -81 -45 -105 -83 -24 -39 -27 -50 -35 -148 -3
-39 -8 -92 -10 -117 -2 -25 -7 -88 -10 -140 -3 -52 -8 -113 -10 -135 -4 -40
-14 -158 -20 -245 -6 -92 -16 -216 -20 -250 -2 -19 -6 -75 -10 -125 -3 -49 -8
-106 -10 -125 -2 -19 -6 -73 -10 -120 -3 -47 -7 -96 -10 -110 -2 -14 -6 -69
-10 -124 -4 -54 -8 -106 -10 -115 -1 -9 -6 -61 -9 -116 -4 -55 -9 -111 -11
-125 -2 -14 -6 -65 -10 -113 -3 -48 -8 -98 -11 -110 -6 -29 -6 -346 0 -373 2
-12 7 -45 11 -75 4 -30 11 -74 17 -99 5 -25 11 -52 13 -60 11 -53 62 -185 97
-249 116 -217 293 -354 535 -412 68 -17 118 -22 223 -21 74 0 149 3 165 6 17
4 48 9 70 12 22 4 48 10 58 15 9 6 17 8 17 5 0 -7 96 27 171 62 180 81 343
236 452 428 67 119 138 333 153 462 3 31 8 60 10 64 11 18 4 136 -10 168 -18
42 -69 92 -114 110 -18 7 -55 11 -87 8 -100 -8 -167 -78 -180 -188 -22 -190
-60 -319 -128 -439 -123 -215 -321 -318 -605 -314 -213 4 -346 108 -424 333
-10 30 -21 71 -24 90 -3 19 -7 41 -9 48 -17 49 -23 256 -11 387 13 154 15 171
21 248 3 42 8 96 10 120 12 133 17 187 20 232 4 49 15 181 20 240 2 17 6 68
10 115 3 47 8 101 10 120 2 19 7 76 10 125 3 50 8 106 10 125 1 19 6 76 10
125 3 50 8 106 10 125 2 19 7 78 10 130 4 52 8 111 10 130 9 91 19 261 19 310
0 136 -134 232 -259 188z"/>
</g>
</svg>
