<svg width="512.001" height="512.001" xmlns="http://www.w3.org/2000/svg">
 <g>
  <title>Layer 1</title>
  <g stroke="null" id="svg_1">
   <g stroke="null" id="svg_2">
    <g stroke="null" id="svg_3">
     <path stroke="null" d="m399.64761,328.86523c-6.77026,-0.12976 -12.41266,5.24634 -12.55594,12.03815c-0.00244,0.11868 -0.41263,12.21521 -6.22479,24.04733c-7.38278,15.02878 -19.69702,22.33466 -37.64569,22.33466c-9.06906,0 -15.82578,-2.64432 -20.65762,-8.08441c-10.67044,-12.0148 -10.52286,-35.5376 -9.56967,-43.55933c0.01727,-0.14084 0.03265,-0.28165 0.04492,-0.42249c0.06268,-0.7103 6.35577,-71.71661 10.78421,-132.14037c0.49692,-6.77458 -4.59262,-12.66908 -11.36722,-13.16537c-6.77454,-0.5 -12.6691,4.59261 -13.16537,11.36717c-4.31406,58.8562 -10.40543,127.82632 -10.73996,131.60596c-0.18817,1.6752 -1.0885,10.72025 -0.02951,21.88388c1.62601,17.1412 6.8656,30.82748 15.57303,40.67752c9.50446,10.75287 23.03452,16.43649 39.12659,16.43649c15.09949,0 28.21936,-3.81717 38.99622,-11.34506c8.66129,-6.05011 15.6351,-14.37503 20.72833,-24.74292c8.27942,-16.85461 8.72467,-33.66739 8.73941,-34.3746c0.14389,-6.79181 -5.24576,-12.41333 -12.03693,-12.55661z" id="svg_4"/>
     <path stroke="null" d="m385.81747,144.62909c11.39856,-7.57835 20.04697,-18.22665 25.01044,-30.79366c2.49551,-6.31766 -0.60391,-13.46182 -6.92157,-15.95738c-6.31705,-2.49496 -13.46182,0.60329 -15.95737,6.92154c-6.29736,15.94449 -22.3728,26.65733 -40.00171,26.65733l-160.72379,0c-28.07178,0 -52.5484,12.37883 -70.78549,35.79832c-13.34067,17.13199 -18.64914,34.31808 -18.86868,35.04129c-1.97223,6.50031 1.69241,13.38681 8.19269,15.35963c1.19429,0.3622 2.39963,0.53505 3.58594,0.53505c5.26971,-0.00063 10.13971,-3.40881 11.74971,-8.71483c0.04305,-0.1396 4.45981,-14.12785 15.20711,-27.68929c13.53006,-17.07417 30.66208,-25.73117 50.91934,-25.73117l22.37158,0c-0.28659,4.56927 -0.57806,9.43924 -0.88065,14.50726c-2.43896,40.83989 -5.77951,96.77374 -15.22739,142.84027c-9.77139,47.64279 -24.22577,73.88135 -40.70154,73.88135c-6.79303,0 -12.29951,5.50647 -12.29951,12.29947s5.50648,12.2995 12.29951,12.2995c17.47882,0 32.17737,-10.25223 43.68723,-30.47198c8.60229,-15.11118 15.50784,-35.73932 21.11209,-63.06635c9.80087,-47.78726 13.20169,-104.73462 15.68558,-146.31616c0.33578,-5.62148 0.65741,-11.00681 0.97287,-15.97336l0,-0.00122l113.70401,0c13.53192,0.0006 26.62659,-3.95061 37.8696,-11.42563z" id="svg_5"/>
    </g>
   </g>
  </g>
  <g id="svg_6"/>
  <g id="svg_7"/>
  <g id="svg_8"/>
  <g id="svg_9"/>
  <g id="svg_10"/>
  <g id="svg_11"/>
  <g id="svg_12"/>
  <g id="svg_13"/>
  <g id="svg_14"/>
  <g id="svg_15"/>
  <g id="svg_16"/>
  <g id="svg_17"/>
  <g id="svg_18"/>
  <g id="svg_19"/>
  <g id="svg_20"/>
 </g>

</svg>