<?xml version="1.0" encoding="utf-8"?>
<!-- Generator: Adobe Illustrator 21.0.0, SVG Export Plug-In . SVG Version: 6.00 Build 0)  -->
<svg version="1.1" id="Layer_1" focusable="false" xmlns="http://www.w3.org/2000/svg" xmlns:xlink="http://www.w3.org/1999/xlink"
	 x="0px" y="0px" viewBox="0 0 576 512" style="enable-background:new 0 0 576 512;" xml:space="preserve">
<style type="text/css">
	.st0{fill:#898989;}
</style>
<path class="st0" d="M282.2,164.4L142.7,279.4v124.1c0,6.7,5.4,12.1,12.1,12.1l84.8-0.2c6.7,0,12.1-5.4,12.1-12.1v-72.4
	c0-6.7,5.4-12.1,12.1-12.1h48.4c6.7,0,12.1,5.4,12.1,12.1v72.4c0,6.7,5.4,12.1,12.1,12.1c0,0,0,0,0,0l84.8,0.2
	c6.7,0,12.1-5.4,12.1-12.1V279.3L293.8,164.4C290.4,161.7,285.6,161.7,282.2,164.4L282.2,164.4z M502.7,242.6l-63.3-52.2V85.6
	c0-5-4.1-9.1-9.1-9.1h-42.4c-5,0-9.1,4.1-9.1,9.1v55l-67.8-55.8c-13.4-11-32.8-11-46.2,0L73.3,242.6c-3.9,3.2-4.4,8.9-1.2,12.8
	c0,0,0,0,0,0l19.3,23.5c3.2,3.9,8.9,4.4,12.8,1.2c0,0,0,0,0,0l178-146.6c3.4-2.7,8.2-2.7,11.6,0l178,146.6c3.9,3.2,9.6,2.7,12.8-1.2
	c0,0,0,0,0,0l19.3-23.5C507.1,251.5,506.6,245.8,502.7,242.6C502.7,242.6,502.7,242.6,502.7,242.6L502.7,242.6z"/>
</svg>
