<svg width="512.001" height="512.001" xmlns="http://www.w3.org/2000/svg">

 <g>
  <title>Layer 1</title>
  <g stroke="null" id="svg_1">
   <g stroke="null" id="svg_2">
    <g stroke="null" id="svg_3">
     <path stroke="null" id="svg_4" d="m442.04974,350.16071c-8.79282,-0.16852 -16.12082,6.8136 -16.30692,15.6344c-0.00317,0.15414 -0.53589,15.86441 -8.08438,31.23126c-9.58829,19.51846 -25.5813,29.0069 -48.89197,29.0069c-11.77835,0 -20.55356,-3.43433 -26.82886,-10.49957c-13.85812,-15.6041 -13.66647,-46.15408 -12.4285,-56.5722c0.0224,-0.18292 0.04239,-0.36581 0.05835,-0.54871c0.08145,-0.92249 8.25449,-93.14117 14.00586,-171.61592c0.64536,-8.79839 -5.96463,-16.45386 -14.76306,-17.09839c-8.79837,-0.64935 -16.45383,5.96461 -17.09839,14.76302c-5.60281,76.43887 -13.51389,166.01309 -13.94839,170.92184c-0.24438,2.17566 -1.41367,13.92279 -0.03833,28.42145c2.11176,22.26196 8.91663,40.0369 20.22531,52.82953c12.34381,13.96518 29.91583,21.34671 50.81522,21.34671c19.61032,0 36.64963,-4.95749 50.64594,-14.73431c11.24875,-7.85751 20.30594,-18.6694 26.92072,-32.13461c10.75281,-21.88974 11.33109,-43.72519 11.35022,-44.64368c0.18689,-8.82077 -6.81287,-16.12164 -15.63281,-16.30771z"/>
     <path stroke="null" id="svg_5" d="m424.08798,110.88596c14.80377,-9.84231 26.03577,-23.67167 32.48203,-39.99295c3.24106,-8.20498 -0.7843,-17.48339 -8.98929,-20.72448c-8.20419,-3.2403 -17.4834,0.78352 -20.72449,8.98928c-8.17862,20.70772 -29.05643,34.62093 -51.95178,34.62093l-208.73833,0c-36.45793,0 -68.24669,16.07688 -91.93192,46.4927c-17.32604,22.24998 -24.22037,44.57024 -24.50549,45.50951c-2.56141,8.4422 2.19799,17.38596 10.64017,19.94815c1.55106,0.47041 3.1165,0.69489 4.65718,0.69489c6.844,-0.00081 13.16885,-4.42717 15.25983,-11.3183c0.05591,-0.1813 5.79211,-18.34839 19.75007,-35.96114c17.57203,-22.17491 39.82201,-33.41811 66.13097,-33.41811l29.05484,0c-0.37219,5.9343 -0.75076,12.25912 -1.14374,18.84117c-3.1676,53.04037 -7.5061,125.68388 -19.77643,185.51231c-12.69044,61.87555 -31.46291,95.95261 -52.86067,95.95261c-8.82236,0 -15.97385,7.15149 -15.97385,15.97382s7.15149,15.97385 15.97385,15.97385c22.70045,0 41.79001,-13.31497 56.73834,-39.5752c11.17212,-19.62546 20.14064,-46.41602 27.4191,-81.90674c12.72879,-62.06323 17.14555,-136.02298 20.37146,-190.02657c0.4361,-7.30086 0.85381,-14.295 1.26353,-20.74525l0,-0.00159l147.67188,0c17.57443,0.00079 34.58102,-5.13081 49.18274,-14.8389z"/>
    </g>
   </g>
  </g>
  <g id="svg_6"/>
  <g id="svg_7"/>
  <g id="svg_8"/>
  <g id="svg_9"/>
  <g id="svg_10"/>
  <g id="svg_11"/>
  <g id="svg_12"/>
  <g id="svg_13"/>
  <g id="svg_14"/>
  <g id="svg_15"/>
  <g id="svg_16"/>
  <g id="svg_17"/>
  <g id="svg_18"/>
  <g id="svg_19"/>
  <g id="svg_20"/>
 </g>
</svg>